<svg width="45" height="12" viewBox="0 0 45 12" fill="none" xmlns="http://www.w3.org/2000/svg">
<path d="M4.56445 0.46875V9H2.50781V0.46875H4.56445ZM7.13086 0.46875V2.05664H0V0.46875H7.13086ZM10.207 7.40625V4.79297C10.207 4.61328 10.1816 4.45898 10.1309 4.33008C10.0801 4.20117 10 4.10156 9.89062 4.03125C9.78125 3.95703 9.63477 3.91992 9.45117 3.91992C9.30273 3.91992 9.17578 3.94531 9.07031 3.99609C8.96484 4.04688 8.88477 4.12305 8.83008 4.22461C8.77539 4.32617 8.74805 4.45508 8.74805 4.61133H6.77344C6.77344 4.31836 6.83789 4.04688 6.9668 3.79688C7.09961 3.54297 7.28711 3.32227 7.5293 3.13477C7.77539 2.94727 8.06836 2.80273 8.4082 2.70117C8.75195 2.5957 9.13477 2.54297 9.55664 2.54297C10.0605 2.54297 10.5098 2.62695 10.9043 2.79492C11.3027 2.96289 11.6172 3.21484 11.8477 3.55078C12.0781 3.88281 12.1934 4.30078 12.1934 4.80469V7.40039C12.1934 7.81445 12.2168 8.12891 12.2637 8.34375C12.3105 8.55469 12.377 8.74023 12.4629 8.90039V9H10.4824C10.3887 8.80469 10.3184 8.56641 10.2715 8.28516C10.2285 8 10.207 7.70703 10.207 7.40625ZM10.4473 5.12695L10.459 6.18164H9.58594C9.40234 6.18164 9.24609 6.20703 9.11719 6.25781C8.99219 6.30859 8.89062 6.37891 8.8125 6.46875C8.73828 6.55469 8.68359 6.65234 8.64844 6.76172C8.61719 6.87109 8.60156 6.98633 8.60156 7.10742C8.60156 7.22461 8.62891 7.33008 8.68359 7.42383C8.74219 7.51367 8.82031 7.58398 8.91797 7.63477C9.01562 7.68555 9.125 7.71094 9.24609 7.71094C9.46484 7.71094 9.65039 7.66992 9.80273 7.58789C9.95898 7.50195 10.0781 7.39844 10.1602 7.27734C10.2422 7.15625 10.2832 7.04297 10.2832 6.9375L10.7168 7.74609C10.6387 7.90234 10.5488 8.06055 10.4473 8.2207C10.3496 8.38086 10.2266 8.5293 10.0781 8.66602C9.93359 8.79883 9.75586 8.9082 9.54492 8.99414C9.33398 9.07617 9.07812 9.11719 8.77734 9.11719C8.38672 9.11719 8.02734 9.03711 7.69922 8.87695C7.375 8.7168 7.11523 8.49414 6.91992 8.20898C6.72461 7.91992 6.62695 7.58789 6.62695 7.21289C6.62695 6.88477 6.68555 6.5918 6.80273 6.33398C6.92383 6.07617 7.10547 5.85742 7.34766 5.67773C7.58984 5.49805 7.89844 5.36133 8.27344 5.26758C8.64844 5.17383 9.08984 5.12695 9.59766 5.12695H10.4473ZM17.2734 2.66016H19.0664V8.75391C19.0664 9.33984 18.9316 9.83594 18.6621 10.2422C18.3926 10.6523 18.0156 10.9629 17.5312 11.1738C17.0508 11.3887 16.4883 11.4961 15.8438 11.4961C15.5586 11.4961 15.2676 11.459 14.9707 11.3848C14.6738 11.3145 14.3965 11.209 14.1387 11.0684C13.8809 10.9277 13.6641 10.7539 13.4883 10.5469L14.3145 9.38672C14.4746 9.56641 14.6758 9.71875 14.918 9.84375C15.1602 9.97266 15.4453 10.0371 15.7734 10.0371C16.0586 10.0371 16.2969 9.98633 16.4883 9.88477C16.6836 9.7832 16.832 9.63477 16.9336 9.43945C17.0352 9.24805 17.0859 9.01562 17.0859 8.74219V4.16016L17.2734 2.66016ZM13.0605 5.90625V5.7832C13.0605 5.30273 13.1191 4.86523 13.2363 4.4707C13.3574 4.07227 13.5293 3.73047 13.752 3.44531C13.9785 3.15625 14.252 2.93359 14.5723 2.77734C14.8926 2.62109 15.2539 2.54297 15.6562 2.54297C16.0898 2.54297 16.4453 2.62695 16.7227 2.79492C17.0039 2.95898 17.2285 3.18945 17.3965 3.48633C17.5684 3.7832 17.7012 4.13086 17.7949 4.5293C17.8926 4.92383 17.9746 5.34961 18.041 5.80664V5.95312C17.9746 6.38281 17.8828 6.78906 17.7656 7.17188C17.6523 7.55078 17.5039 7.88672 17.3203 8.17969C17.1367 8.47266 16.9062 8.70312 16.6289 8.87109C16.3555 9.03516 16.0273 9.11719 15.6445 9.11719C15.2461 9.11719 14.8867 9.03711 14.5664 8.87695C14.25 8.7168 13.9785 8.49219 13.752 8.20312C13.5293 7.91406 13.3574 7.57422 13.2363 7.18359C13.1191 6.79297 13.0605 6.36719 13.0605 5.90625ZM15.0352 5.7832V5.90625C15.0352 6.14453 15.0566 6.36523 15.0996 6.56836C15.1465 6.77148 15.2168 6.95117 15.3105 7.10742C15.4043 7.25977 15.5195 7.37891 15.6562 7.46484C15.7969 7.55078 15.9609 7.59375 16.1484 7.59375C16.4336 7.59375 16.6641 7.5332 16.8398 7.41211C17.0156 7.29102 17.1426 7.11914 17.2207 6.89648C17.2988 6.67383 17.332 6.41211 17.3203 6.11133V5.64844C17.3281 5.39062 17.3105 5.16406 17.2676 4.96875C17.2246 4.76953 17.1562 4.60352 17.0625 4.4707C16.9727 4.33789 16.8516 4.23828 16.6992 4.17188C16.5508 4.10156 16.3711 4.06641 16.1602 4.06641C15.9766 4.06641 15.8145 4.10938 15.6738 4.19531C15.5332 4.28125 15.416 4.40234 15.3223 4.55859C15.2285 4.71094 15.1562 4.89258 15.1055 5.10352C15.0586 5.31055 15.0352 5.53711 15.0352 5.7832ZM22.2891 0V9H20.3086V0H22.2891ZM26.5781 9.11719C26.0625 9.11719 25.6016 9.03711 25.1953 8.87695C24.7891 8.71289 24.4453 8.48828 24.1641 8.20312C23.8867 7.91797 23.6738 7.58984 23.5254 7.21875C23.3809 6.84766 23.3086 6.45508 23.3086 6.04102V5.81836C23.3086 5.35352 23.373 4.92383 23.502 4.5293C23.6309 4.13086 23.8223 3.7832 24.0762 3.48633C24.3301 3.18945 24.6484 2.95898 25.0312 2.79492C25.4141 2.62695 25.8594 2.54297 26.3672 2.54297C26.8164 2.54297 27.2188 2.61523 27.5742 2.75977C27.9297 2.9043 28.2305 3.11133 28.4766 3.38086C28.7266 3.65039 28.916 3.97656 29.0449 4.35938C29.1777 4.74219 29.2441 5.17188 29.2441 5.64844V6.45117H24.0645V5.21484H27.3164V5.0625C27.3203 4.85156 27.2832 4.67188 27.2051 4.52344C27.1309 4.375 27.0215 4.26172 26.877 4.18359C26.7324 4.10547 26.5566 4.06641 26.3496 4.06641C26.1348 4.06641 25.957 4.11328 25.8164 4.20703C25.6797 4.30078 25.5723 4.42969 25.4941 4.59375C25.4199 4.75391 25.3672 4.93945 25.3359 5.15039C25.3047 5.36133 25.2891 5.58398 25.2891 5.81836V6.04102C25.2891 6.27539 25.3203 6.48828 25.3828 6.67969C25.4492 6.87109 25.543 7.03516 25.6641 7.17188C25.7891 7.30469 25.9375 7.4082 26.1094 7.48242C26.2852 7.55664 26.4844 7.59375 26.707 7.59375C26.9766 7.59375 27.2422 7.54297 27.5039 7.44141C27.7656 7.33984 27.9902 7.17188 28.1777 6.9375L29.0742 8.00391C28.9453 8.1875 28.7617 8.36523 28.5234 8.53711C28.2891 8.70898 28.0078 8.84961 27.6797 8.95898C27.3516 9.06445 26.9844 9.11719 26.5781 9.11719ZM33.3691 7.21875C33.3691 7.10938 33.332 7.01562 33.2578 6.9375C33.1875 6.85547 33.0625 6.78125 32.8828 6.71484C32.7031 6.64453 32.4512 6.57422 32.127 6.50391C31.8184 6.4375 31.5273 6.34961 31.2539 6.24023C30.9844 6.13086 30.748 5.99805 30.5449 5.8418C30.3418 5.68555 30.1816 5.5 30.0645 5.28516C29.9512 5.07031 29.8945 4.82422 29.8945 4.54688C29.8945 4.27734 29.9512 4.02344 30.0645 3.78516C30.1816 3.54297 30.3516 3.33008 30.5742 3.14648C30.8008 2.95898 31.0762 2.8125 31.4004 2.70703C31.7246 2.59766 32.0938 2.54297 32.5078 2.54297C33.0781 2.54297 33.5703 2.63086 33.9844 2.80664C34.3984 2.97852 34.7168 3.2207 34.9395 3.5332C35.166 3.8418 35.2793 4.19922 35.2793 4.60547H33.3047C33.3047 4.44531 33.2773 4.30859 33.2227 4.19531C33.1719 4.08203 33.0879 3.99609 32.9707 3.9375C32.8535 3.875 32.6973 3.84375 32.502 3.84375C32.3652 3.84375 32.2402 3.86914 32.127 3.91992C32.0176 3.9707 31.9297 4.04102 31.8633 4.13086C31.7969 4.2207 31.7637 4.32617 31.7637 4.44727C31.7637 4.5332 31.7832 4.61133 31.8223 4.68164C31.8652 4.74805 31.9297 4.81055 32.0156 4.86914C32.1016 4.92383 32.2109 4.97461 32.3438 5.02148C32.4766 5.06445 32.6367 5.10352 32.8242 5.13867C33.25 5.2168 33.6484 5.32812 34.0195 5.47266C34.3906 5.61719 34.6914 5.82227 34.9219 6.08789C35.1562 6.35352 35.2734 6.71094 35.2734 7.16016C35.2734 7.44141 35.209 7.70117 35.0801 7.93945C34.9512 8.17383 34.7656 8.38086 34.5234 8.56055C34.2812 8.73633 33.9902 8.87305 33.6504 8.9707C33.3105 9.06836 32.9277 9.11719 32.502 9.11719C31.8965 9.11719 31.3848 9.00977 30.9668 8.79492C30.5488 8.57617 30.2324 8.30273 30.0176 7.97461C29.8066 7.64258 29.7012 7.30664 29.7012 6.9668H31.541C31.5488 7.16211 31.5957 7.32227 31.6816 7.44727C31.7715 7.57227 31.8906 7.66406 32.0391 7.72266C32.1875 7.78125 32.3594 7.81055 32.5547 7.81055C32.7344 7.81055 32.8828 7.78516 33 7.73438C33.1211 7.68359 33.2129 7.61523 33.2754 7.5293C33.3379 7.43945 33.3691 7.33594 33.3691 7.21875ZM39.5215 7.21875C39.5215 7.10938 39.4844 7.01562 39.4102 6.9375C39.3398 6.85547 39.2148 6.78125 39.0352 6.71484C38.8555 6.64453 38.6035 6.57422 38.2793 6.50391C37.9707 6.4375 37.6797 6.34961 37.4062 6.24023C37.1367 6.13086 36.9004 5.99805 36.6973 5.8418C36.4941 5.68555 36.334 5.5 36.2168 5.28516C36.1035 5.07031 36.0469 4.82422 36.0469 4.54688C36.0469 4.27734 36.1035 4.02344 36.2168 3.78516C36.334 3.54297 36.5039 3.33008 36.7266 3.14648C36.9531 2.95898 37.2285 2.8125 37.5527 2.70703C37.877 2.59766 38.2461 2.54297 38.6602 2.54297C39.2305 2.54297 39.7227 2.63086 40.1367 2.80664C40.5508 2.97852 40.8691 3.2207 41.0918 3.5332C41.3184 3.8418 41.4316 4.19922 41.4316 4.60547H39.457C39.457 4.44531 39.4297 4.30859 39.375 4.19531C39.3242 4.08203 39.2402 3.99609 39.123 3.9375C39.0059 3.875 38.8496 3.84375 38.6543 3.84375C38.5176 3.84375 38.3926 3.86914 38.2793 3.91992C38.1699 3.9707 38.082 4.04102 38.0156 4.13086C37.9492 4.2207 37.916 4.32617 37.916 4.44727C37.916 4.5332 37.9355 4.61133 37.9746 4.68164C38.0176 4.74805 38.082 4.81055 38.168 4.86914C38.2539 4.92383 38.3633 4.97461 38.4961 5.02148C38.6289 5.06445 38.7891 5.10352 38.9766 5.13867C39.4023 5.2168 39.8008 5.32812 40.1719 5.47266C40.543 5.61719 40.8438 5.82227 41.0742 6.08789C41.3086 6.35352 41.4258 6.71094 41.4258 7.16016C41.4258 7.44141 41.3613 7.70117 41.2324 7.93945C41.1035 8.17383 40.918 8.38086 40.6758 8.56055C40.4336 8.73633 40.1426 8.87305 39.8027 8.9707C39.4629 9.06836 39.0801 9.11719 38.6543 9.11719C38.0488 9.11719 37.5371 9.00977 37.1191 8.79492C36.7012 8.57617 36.3848 8.30273 36.1699 7.97461C35.959 7.64258 35.8535 7.30664 35.8535 6.9668H37.6934C37.7012 7.16211 37.748 7.32227 37.834 7.44727C37.9238 7.57227 38.043 7.66406 38.1914 7.72266C38.3398 7.78125 38.5117 7.81055 38.707 7.81055C38.8867 7.81055 39.0352 7.78516 39.1523 7.73438C39.2734 7.68359 39.3652 7.61523 39.4277 7.5293C39.4902 7.43945 39.5215 7.33594 39.5215 7.21875ZM42.4805 8.07422C42.4805 7.79297 42.582 7.55859 42.7852 7.37109C42.9883 7.17969 43.25 7.08398 43.5703 7.08398C43.8945 7.08398 44.1562 7.17969 44.3555 7.37109C44.5586 7.55859 44.6602 7.79297 44.6602 8.07422C44.6602 8.35547 44.5586 8.5918 44.3555 8.7832C44.1562 8.9707 43.8945 9.06445 43.5703 9.06445C43.25 9.06445 42.9883 8.9707 42.7852 8.7832C42.582 8.5918 42.4805 8.35547 42.4805 8.07422Z" fill="url(#paint0_linear_262_236)"/>
<defs>
<linearGradient id="paint0_linear_262_236" x1="32.1923" y1="10.5909" x2="32.1923" y2="-0.590909" gradientUnits="userSpaceOnUse">
<stop stop-color="#615FFF"/>
<stop offset="1" stop-color="#00B8DB"/>
</linearGradient>
</defs>
</svg>
