<svg width="44" height="44" viewBox="0 0 44 44" fill="none" xmlns="http://www.w3.org/2000/svg">
<rect x="1.46" y="1.46" width="41.08" height="41.08" rx="11.3733" fill="url(#paint0_linear_262_224)"/>
<rect x="1.46" y="1.46" width="41.08" height="41.08" rx="11.3733" stroke="#E5F0FF" stroke-width="2.92"/>
<g clip-path="url(#clip0_262_224)">
<path d="M11 26.8887L17.1111 20.7776C18.2453 19.6861 19.6436 19.6861 20.7778 20.7776L24.4444 24.4442L25.6667 23.222C26.2533 22.6586 26.9084 22.386 27.5623 22.4031" stroke="white" stroke-width="2.44444" stroke-linecap="round" stroke-linejoin="round"/>
<path d="M22 33H14.6667C13.6942 33 12.7616 32.6137 12.0739 31.9261C11.3863 31.2384 11 30.3058 11 29.3333V14.6667C11 13.6942 11.3863 12.7616 12.0739 12.0739C12.7616 11.3863 13.6942 11 14.6667 11H29.3333C30.3058 11 31.2384 11.3863 31.9261 12.0739C32.6137 12.7616 33 13.6942 33 14.6667V22" stroke="white" stroke-width="2.44444" stroke-linecap="round" stroke-linejoin="round"/>
<path d="M25.6665 17.1113H25.678" stroke="white" stroke-width="2.44444" stroke-linecap="round" stroke-linejoin="round"/>
<path fill-rule="evenodd" clip-rule="evenodd" d="M34.927 34.6764C34.8805 34.7693 34.809 34.8475 34.7205 34.9021C34.6321 34.9567 34.5302 34.9856 34.4262 34.9856H26.3036C25.9495 34.9856 25.7815 34.6702 25.6313 34.4002C25.4693 34.1101 25.3311 33.8074 25.2179 33.495C24.9378 32.7309 24.7042 31.6503 24.9109 30.4123C25.0379 29.6239 25.3091 28.8656 25.7109 28.1755C26.0778 27.5542 26.7926 27.38 27.3864 27.5385L28.6115 27.8668L29.1913 25.7022C29.3067 25.2717 29.5884 24.9046 29.9744 24.6817C30.1655 24.5714 30.3765 24.4997 30.5953 24.4709C30.8142 24.4421 31.0365 24.4567 31.2497 24.5138C31.4629 24.5709 31.6628 24.6695 31.8379 24.8038C32.013 24.9382 32.1599 25.1057 32.2702 25.2969C32.3806 25.488 32.4522 25.699 32.481 25.9178C32.5098 26.1367 32.4953 26.359 32.4381 26.5722L31.8578 28.7368L32.6185 28.9407C33.5451 29.1888 34.0246 30.1277 33.8946 30.9881C33.833 31.3971 33.8084 31.7987 33.8582 32.0906C33.9221 32.4659 34.1557 32.9516 34.41 33.3824C34.6229 33.7431 34.8245 34.0221 34.8671 34.0793C34.9943 34.2518 35.0245 34.482 34.927 34.6764ZM30.9598 25.5958C30.8887 25.5768 30.8146 25.5719 30.7416 25.5815C30.6686 25.5911 30.5982 25.6151 30.5345 25.6519C30.4708 25.6887 30.4149 25.7378 30.3702 25.7962C30.3254 25.8546 30.2926 25.9213 30.2736 25.9924L29.5487 28.6981C29.5297 28.7692 29.4968 28.8358 29.452 28.8942C29.4072 28.9525 29.3514 29.0015 29.2876 29.0383C29.2239 29.0751 29.1536 29.0989 29.0806 29.1085C29.0077 29.1181 28.9335 29.1132 28.8625 29.0942L27.0968 28.6208C26.8822 28.5631 26.7349 28.6449 26.6761 28.7446C26.5194 29.0111 26.3876 29.2914 26.2823 29.5821L32.73 31.2923C32.744 31.1276 32.7642 30.9685 32.7866 30.8207C32.8454 30.4336 32.6202 30.1008 32.3283 30.0229L31.027 29.674C30.956 29.6549 30.8893 29.6221 30.831 29.5773C30.7726 29.5325 30.7236 29.4766 30.6869 29.4129C30.6501 29.3492 30.6262 29.2788 30.6166 29.2059C30.607 29.1329 30.6119 29.0588 30.631 28.9877L31.3559 26.282C31.3942 26.1386 31.374 25.9858 31.2997 25.8572C31.2255 25.7287 31.1032 25.6343 30.9598 25.5958ZM32.7927 32.4676L26.0044 30.6672C25.8588 31.6329 26.0419 32.4866 26.2699 33.1096C26.3865 33.4283 26.5131 33.6821 26.6089 33.8541L26.6156 33.8653H27.5679C27.3567 33.4216 27.1405 32.82 27.1365 32.1886C27.1337 32.1137 27.146 32.0389 27.1726 31.9687C27.1992 31.8986 27.2396 31.8345 27.2914 31.7803C27.3433 31.7261 27.4055 31.6828 27.4744 31.6531C27.5432 31.6234 27.6174 31.6078 27.6924 31.6073C27.7674 31.6067 27.8418 31.6213 27.9111 31.65C27.9804 31.6788 28.0432 31.7212 28.0958 31.7747C28.1484 31.8282 28.1897 31.8917 28.2173 31.9614C28.2449 32.0312 28.2581 32.1058 28.2564 32.1808C28.2592 32.6155 28.4283 33.0849 28.6238 33.4737C28.7011 33.6283 28.779 33.7622 28.8434 33.8658H33.3949C33.1692 33.4737 32.9132 32.9639 32.7927 32.4676Z" fill="white"/>
</g>
<defs>
<linearGradient id="paint0_linear_262_224" x1="31" y1="42.5" x2="31" y2="1.5" gradientUnits="userSpaceOnUse">
<stop stop-color="#615FFF"/>
<stop offset="1" stop-color="#00B8DB"/>
</linearGradient>
<clipPath id="clip0_262_224">
<rect width="29.3333" height="29.3333" fill="white" transform="translate(7.3335 7.3335)"/>
</clipPath>
</defs>
</svg>
