<svg xmlns="http://www.w3.org/2000/svg" version="1.1" xmlns:xlink="http://www.w3.org/1999/xlink" width="44" height="44"><svg xmlns="http://www.w3.org/2000/svg" version="1.1" xmlns:xlink="http://www.w3.org/1999/xlink" width="44" height="44"><svg width="44" height="44" viewBox="0 0 44 44" fill="none" xmlns="http://www.w3.org/2000/svg">
<rect width="44" height="44" fill="url(#paint0_linear_265_247)"></rect>
<g clip-path="url(#clip0_265_247)">
<path d="M11 26.8889L17.1111 20.7778C18.2453 19.6864 19.6436 19.6864 20.7778 20.7778L24.4444 24.4445L25.6667 23.2223C26.2533 22.6588 26.9084 22.3863 27.5623 22.4034" stroke="white" stroke-width="2.44444" stroke-linecap="round" stroke-linejoin="round"></path>
<path d="M22 33H14.6667C13.6942 33 12.7616 32.6137 12.0739 31.9261C11.3863 31.2384 11 30.3058 11 29.3333V14.6667C11 13.6942 11.3863 12.7616 12.0739 12.0739C12.7616 11.3863 13.6942 11 14.6667 11H29.3333C30.3058 11 31.2384 11.3863 31.9261 12.0739C32.6137 12.7616 33 13.6942 33 14.6667V22" stroke="white" stroke-width="2.44444" stroke-linecap="round" stroke-linejoin="round"></path>
<path d="M25.6665 17.1111H25.678" stroke="white" stroke-width="2.44444" stroke-linecap="round" stroke-linejoin="round"></path>
<path fill-rule="evenodd" clip-rule="evenodd" d="M34.927 34.6767C34.8805 34.7696 34.809 34.8477 34.7205 34.9023C34.6321 34.9569 34.5302 34.9859 34.4262 34.9859H26.3036C25.9495 34.9859 25.7815 34.6705 25.6313 34.4005C25.4693 34.1104 25.3311 33.8076 25.2179 33.4952C24.9378 32.7311 24.7042 31.6505 24.9109 30.4125C25.0379 29.6241 25.3091 28.8658 25.7109 28.1757C26.0778 27.5545 26.7926 27.3802 27.3864 27.5388L28.6115 27.867L29.1913 25.7025C29.3067 25.2719 29.5884 24.9048 29.9744 24.682C30.1655 24.5716 30.3765 24.5 30.5953 24.4712C30.8142 24.4424 31.0365 24.4569 31.2497 24.5141C31.4629 24.5712 31.6628 24.6697 31.8379 24.8041C32.013 24.9384 32.1599 25.106 32.2702 25.2971C32.3806 25.4883 32.4522 25.6993 32.481 25.9181C32.5098 26.1369 32.4953 26.3593 32.4381 26.5725L31.8578 28.737L32.6185 28.9409C33.5451 29.1891 34.0246 30.1279 33.8946 30.9884C33.833 31.3973 33.8084 31.799 33.8582 32.0908C33.9221 32.4662 34.1557 32.9518 34.41 33.3826C34.6229 33.7434 34.8245 34.0224 34.8671 34.0795C34.9943 34.252 35.0245 34.4823 34.927 34.6767ZM30.9598 25.5961C30.8887 25.577 30.8146 25.5721 30.7416 25.5818C30.6686 25.5914 30.5982 25.6153 30.5345 25.6521C30.4708 25.689 30.4149 25.738 30.3702 25.7964C30.3254 25.8549 30.2926 25.9215 30.2736 25.9927L29.5487 28.6984C29.5297 28.7694 29.4968 28.836 29.452 28.8944C29.4072 28.9528 29.3514 29.0017 29.2876 29.0385C29.2239 29.0753 29.1536 29.0992 29.0806 29.1088C29.0077 29.1183 28.9335 29.1135 28.8625 29.0944L27.0968 28.6211C26.8822 28.5634 26.7349 28.6451 26.6761 28.7449C26.5194 29.0113 26.3876 29.2917 26.2823 29.5823L32.73 31.2926C32.744 31.1279 32.7642 30.9688 32.7866 30.8209C32.8454 30.4338 32.6202 30.1011 32.3283 30.0232L31.027 29.6742C30.956 29.6552 30.8893 29.6223 30.831 29.5775C30.7726 29.5327 30.7236 29.4768 30.6869 29.4131C30.6501 29.3494 30.6262 29.2791 30.6166 29.2061C30.607 29.1332 30.6119 29.059 30.631 28.988L31.3559 26.2823C31.3942 26.1388 31.374 25.986 31.2997 25.8575C31.2255 25.7289 31.1032 25.6345 30.9598 25.5961ZM32.7927 32.4678L26.0044 30.6674C25.8588 31.6332 26.0419 32.4869 26.2699 33.1098C26.3865 33.4286 26.5131 33.6823 26.6089 33.8543L26.6156 33.8655H27.5679C27.3567 33.4218 27.1405 32.8202 27.1365 32.1889C27.1337 32.1139 27.146 32.0391 27.1726 31.969C27.1992 31.8989 27.2396 31.8348 27.2914 31.7805C27.3433 31.7263 27.4055 31.6831 27.4744 31.6533C27.5432 31.6236 27.6174 31.608 27.6924 31.6075C27.7674 31.607 27.8418 31.6215 27.9111 31.6503C27.9804 31.679 28.0432 31.7214 28.0958 31.7749C28.1484 31.8284 28.1897 31.8919 28.2173 31.9617C28.2449 32.0314 28.2581 32.106 28.2564 32.181C28.2592 32.6157 28.4283 33.0852 28.6238 33.4739C28.7011 33.6285 28.779 33.7624 28.8434 33.8661H33.3949C33.1692 33.4739 32.9132 32.9642 32.7927 32.4678Z" fill="white"></path>
</g>
<defs>
<linearGradient id="paint0_linear_265_247" x1="31" y1="42.5" x2="31" y2="1.5" gradientUnits="userSpaceOnUse">
<stop stop-color="#615FFF"></stop>
<stop offset="1" stop-color="#00B8DB"></stop>
</linearGradient>
<clipPath id="clip0_265_247">
<rect width="29.3333" height="29.3333" fill="white" transform="translate(7.3335 7.3335)"></rect>
</clipPath>
</defs>
</svg></svg><style>@media (prefers-color-scheme: light) { :root { filter: none; } }
@media (prefers-color-scheme: dark) { :root { filter: none; } }
</style></svg>